name C:\Users\u0101727\Documents\MyRepositories\upper-imu-dc\OpenSim\subject0\MA\MA_Splines\angle_in_n3_dof6_0.mot
datacolumns 7
datarows 67
range 0.01000000 0.67000000
endheader 
time	clav_prot	clav_elev	scapula_abduction	scapula_elevation	scapula_upward_rot	scapula_winging	
          0.01000000	        -44.34577705	         -7.65248351	        -30.88730313	         -7.82036939	          8.23102828	        -12.40251587	
          0.02000000	        -30.62585626	         -7.65248351	        -30.88730313	         -7.82036939	          8.23102828	        -12.40251587	
          0.03000000	        -16.90593547	         -7.65248351	        -30.88730313	         -7.82036939	          8.23102828	        -12.40251587	
          0.04000000	        -44.34577705	          4.60560848	        -30.88730313	         -7.82036939	          8.23102828	        -12.40251587	
          0.05000000	        -30.62585626	          4.60560848	        -30.88730313	         -7.82036939	          8.23102828	        -12.40251587	
          0.06000000	        -16.90593547	          4.60560848	        -30.88730313	         -7.82036939	          8.23102828	        -12.40251587	
          0.07000000	        -44.34577705	         16.86370047	        -30.88730313	         -7.82036939	          8.23102828	        -12.40251587	
          0.08000000	        -30.62585626	         16.86370047	        -30.88730313	         -7.82036939	          8.23102828	        -12.40251587	
          0.09000000	        -16.90593547	         16.86370047	        -30.88730313	         -7.82036939	          8.23102828	        -12.40251587	
          0.10000000	        -44.34577705	         -7.65248351	         -9.79969714	         -7.82036939	          8.23102828	        -12.40251587	
          0.11000000	        -30.62585626	         -7.65248351	         -9.79969714	         -7.82036939	          8.23102828	        -12.40251587	
          0.12000000	        -16.90593547	         -7.65248351	         -9.79969714	         -7.82036939	          8.23102828	        -12.40251587	
          0.13000000	        -44.34577705	          4.60560848	         -9.79969714	         -7.82036939	          8.23102828	        -12.40251587	
          0.14000000	        -30.62585626	          4.60560848	         -9.79969714	         -7.82036939	          8.23102828	        -12.40251587	
          0.15000000	        -16.90593547	          4.60560848	         -9.79969714	         -7.82036939	          8.23102828	        -12.40251587	
          0.16000000	        -44.34577705	         16.86370047	         -9.79969714	         -7.82036939	          8.23102828	        -12.40251587	
          0.17000000	        -30.62585626	         16.86370047	         -9.79969714	         -7.82036939	          8.23102828	        -12.40251587	
          0.18000000	        -16.90593547	         16.86370047	         -9.79969714	         -7.82036939	          8.23102828	        -12.40251587	
          0.19000000	        -44.34577705	         -7.65248351	         11.28790885	         -7.82036939	          8.23102828	        -12.40251587	
          0.20000000	        -30.62585626	         -7.65248351	         11.28790885	         -7.82036939	          8.23102828	        -12.40251587	
          0.21000000	        -16.90593547	         -7.65248351	         11.28790885	         -7.82036939	          8.23102828	        -12.40251587	
          0.22000000	        -44.34577705	          4.60560848	         11.28790885	         -7.82036939	          8.23102828	        -12.40251587	
          0.23000000	        -30.62585626	          4.60560848	         11.28790885	         -7.82036939	          8.23102828	        -12.40251587	
          0.24000000	        -16.90593547	          4.60560848	         11.28790885	         -7.82036939	          8.23102828	        -12.40251587	
          0.25000000	        -44.34577705	         16.86370047	         11.28790885	         -7.82036939	          8.23102828	        -12.40251587	
          0.26000000	        -30.62585626	         16.86370047	         11.28790885	         -7.82036939	          8.23102828	        -12.40251587	
          0.27000000	        -16.90593547	         16.86370047	         11.28790885	         -7.82036939	          8.23102828	        -12.40251587	
          0.28000000	        -44.34577705	         -7.65248351	        -30.88730313	         -0.36668095	          8.23102828	        -12.40251587	
          0.29000000	        -30.62585626	         -7.65248351	        -30.88730313	         -0.36668095	          8.23102828	        -12.40251587	
          0.30000000	        -16.90593547	         -7.65248351	        -30.88730313	         -0.36668095	          8.23102828	        -12.40251587	
          0.31000000	        -44.34577705	          4.60560848	        -30.88730313	         -0.36668095	          8.23102828	        -12.40251587	
          0.32000000	        -30.62585626	          4.60560848	        -30.88730313	         -0.36668095	          8.23102828	        -12.40251587	
          0.33000000	        -16.90593547	          4.60560848	        -30.88730313	         -0.36668095	          8.23102828	        -12.40251587	
          0.34000000	        -44.34577705	         16.86370047	        -30.88730313	         -0.36668095	          8.23102828	        -12.40251587	
          0.35000000	        -30.62585626	         16.86370047	        -30.88730313	         -0.36668095	          8.23102828	        -12.40251587	
          0.36000000	        -16.90593547	         16.86370047	        -30.88730313	         -0.36668095	          8.23102828	        -12.40251587	
          0.37000000	        -44.34577705	         -7.65248351	         -9.79969714	         -0.36668095	          8.23102828	        -12.40251587	
          0.38000000	        -30.62585626	         -7.65248351	         -9.79969714	         -0.36668095	          8.23102828	        -12.40251587	
          0.39000000	        -16.90593547	         -7.65248351	         -9.79969714	         -0.36668095	          8.23102828	        -12.40251587	
          0.40000000	        -44.34577705	          4.60560848	         -9.79969714	         -0.36668095	          8.23102828	        -12.40251587	
          0.41000000	        -30.62585626	          4.60560848	         -9.79969714	         -0.36668095	          8.23102828	        -12.40251587	
          0.42000000	        -16.90593547	          4.60560848	         -9.79969714	         -0.36668095	          8.23102828	        -12.40251587	
          0.43000000	        -44.34577705	         16.86370047	         -9.79969714	         -0.36668095	          8.23102828	        -12.40251587	
          0.44000000	        -30.62585626	         16.86370047	         -9.79969714	         -0.36668095	          8.23102828	        -12.40251587	
          0.45000000	        -16.90593547	         16.86370047	         -9.79969714	         -0.36668095	          8.23102828	        -12.40251587	
          0.46000000	        -44.34577705	         -7.65248351	         11.28790885	         -0.36668095	          8.23102828	        -12.40251587	
          0.47000000	        -30.62585626	         -7.65248351	         11.28790885	         -0.36668095	          8.23102828	        -12.40251587	
          0.48000000	        -16.90593547	         -7.65248351	         11.28790885	         -0.36668095	          8.23102828	        -12.40251587	
          0.49000000	        -44.34577705	          4.60560848	         11.28790885	         -0.36668095	          8.23102828	        -12.40251587	
          0.50000000	        -30.62585626	          4.60560848	         11.28790885	         -0.36668095	          8.23102828	        -12.40251587	
          0.51000000	        -16.90593547	          4.60560848	         11.28790885	         -0.36668095	          8.23102828	        -12.40251587	
          0.52000000	        -44.34577705	         16.86370047	         11.28790885	         -0.36668095	          8.23102828	        -12.40251587	
          0.53000000	        -30.62585626	         16.86370047	         11.28790885	         -0.36668095	          8.23102828	        -12.40251587	
          0.54000000	        -16.90593547	         16.86370047	         11.28790885	         -0.36668095	          8.23102828	        -12.40251587	
          0.55000000	        -44.34577705	         -7.65248351	        -30.88730313	          7.08700750	          8.23102828	        -12.40251587	
          0.56000000	        -30.62585626	         -7.65248351	        -30.88730313	          7.08700750	          8.23102828	        -12.40251587	
          0.57000000	        -16.90593547	         -7.65248351	        -30.88730313	          7.08700750	          8.23102828	        -12.40251587	
          0.58000000	        -44.34577705	          4.60560848	        -30.88730313	          7.08700750	          8.23102828	        -12.40251587	
          0.59000000	        -30.62585626	          4.60560848	        -30.88730313	          7.08700750	          8.23102828	        -12.40251587	
          0.60000000	        -16.90593547	          4.60560848	        -30.88730313	          7.08700750	          8.23102828	        -12.40251587	
          0.61000000	        -44.34577705	         16.86370047	        -30.88730313	          7.08700750	          8.23102828	        -12.40251587	
          0.62000000	        -30.62585626	         16.86370047	        -30.88730313	          7.08700750	          8.23102828	        -12.40251587	
          0.63000000	        -16.90593547	         16.86370047	        -30.88730313	          7.08700750	          8.23102828	        -12.40251587	
          0.64000000	        -44.34577705	         -7.65248351	         -9.79969714	          7.08700750	          8.23102828	        -12.40251587	
          0.65000000	        -30.62585626	         -7.65248351	         -9.79969714	          7.08700750	          8.23102828	        -12.40251587	
          0.66000000	        -16.90593547	         -7.65248351	         -9.79969714	          7.08700750	          8.23102828	        -12.40251587	
          0.67000000	        -44.34577705	          4.60560848	         -9.79969714	          7.08700750	          8.23102828	        -12.40251587	
